<svg id="Layer_1" data-name="Layer 1" xmlns="http://www.w3.org/2000/svg" xmlns:xlink="http://www.w3.org/1999/xlink" viewBox="0 0 595.28 595.28"><defs><style>.cls-1,.cls-8{fill:none;}.cls-2{fill:#fff;}.cls-3{clip-path:url(#clip-path);}.cls-4{fill:#4b76ba;}.cls-5{fill:#f7941d;}.cls-6{fill:#ed1c24;}.cls-7{fill:#ec2227;}.cls-8{stroke:#989898;stroke-miterlimit:10;stroke-width:1.28px;}</style><clipPath id="clip-path"><circle class="cls-1" cx="298.18" cy="297.27" r="295.46"/></clipPath></defs><circle class="cls-2" cx="298.18" cy="297.27" r="295.46"/><g class="cls-3"><rect class="cls-4" x="-5.06" y="323.32" width="616.24" height="280.64"/><rect class="cls-5" x="-3.34" y="323.02" width="602.68" height="34.9"/><rect class="cls-5" x="9.41" y="403.26" width="583.56" height="8.42"/><rect class="cls-5" x="9.41" y="439.77" width="583.56" height="27.08"/><rect class="cls-5" x="9.41" y="482.69" width="583.56" height="112.54"/><rect class="cls-4" x="-106.81" y="283.92" width="797.49" height="16.18"/><rect class="cls-5" x="-89.04" y="253.29" width="761.95" height="11.46"/><path class="cls-5" d="M463.5,218.58A141.69,141.69,0,1,0,185.14,256H458.48A141.8,141.8,0,0,0,463.5,218.58Z"/><path class="cls-6" d="M198.43,183.1a58.47,58.47,0,1,0,58.46,58.46A58.47,58.47,0,0,0,198.43,183.1Zm0,100.76a42.3,42.3,0,1,1,42.3-42.3A42.29,42.29,0,0,1,198.43,283.86Z"/><path class="cls-6" d="M321.81,183.1a58.47,58.47,0,1,0,58.46,58.46A58.46,58.46,0,0,0,321.81,183.1Zm0,100.76a42.3,42.3,0,1,1,42.3-42.3A42.29,42.29,0,0,1,321.81,283.86Z"/><path class="cls-6" d="M445.19,183.1a58.47,58.47,0,1,0,58.46,58.46A58.46,58.46,0,0,0,445.19,183.1Zm0,100.76a42.3,42.3,0,1,1,42.29-42.3A42.3,42.3,0,0,1,445.19,283.86Z"/><path class="cls-6" d="M79.64,283.86A42.3,42.3,0,1,1,115,218.4h18.31a58.47,58.47,0,1,0,0,46.33H115A42.26,42.26,0,0,1,79.64,283.86Z"/><polygon class="cls-7" points="532.65 283.91 532.65 183.06 516.33 183.06 516.33 300.06 575.17 300.06 575.17 283.91 532.65 283.91"/></g><circle class="cls-8" cx="298.18" cy="297.27" r="295.46"/></svg>