<?xml version="1.0" encoding="UTF-8" standalone="no"?>
<svg
   width="623"
   height="372"
   viewBox="0 0 623 372"
   fill="none"
   version="1.1"
   id="svg728"
   sodipodi:docname="plancha.svg"
   inkscape:version="1.2.2 (b0a8486541, 2022-12-01)"
   xmlns:inkscape="http://www.inkscape.org/namespaces/inkscape"
   xmlns:sodipodi="http://sodipodi.sourceforge.net/DTD/sodipodi-0.dtd"
   xmlns="http://www.w3.org/2000/svg"
   xmlns:svg="http://www.w3.org/2000/svg">
  <defs
     id="defs732" />
  <sodipodi:namedview
     id="namedview730"
     pagecolor="#ffffff"
     bordercolor="#000000"
     borderopacity="0.25"
     inkscape:showpageshadow="2"
     inkscape:pageopacity="0.0"
     inkscape:pagecheckerboard="0"
     inkscape:deskcolor="#d1d1d1"
     showgrid="false"
     inkscape:zoom="1.5050138"
     inkscape:cx="312.95394"
     inkscape:cy="162.45698"
     inkscape:window-width="1854"
     inkscape:window-height="1011"
     inkscape:window-x="1986"
     inkscape:window-y="32"
     inkscape:window-maximized="1"
     inkscape:current-layer="svg728" />
  <path
     d="M262.5 181.5L265.5 154.5M262.5 181.5L200 205.5L132 233.5L69.5 267.5L25 294L1 317.5V326.5L14 339.5L63.5 349.5L110 360.5L150 366L179 371.5L208.5 366L272 349.5L330.5 326.5L376.5 310M262.5 181.5L261 201.5L286 211L316.5 216.5L373 227L420.5 235.5L450 227L516 204L518.5 170.5M265.5 154.5H260L261 143H269.5V126L329.5 117H341M265.5 154.5L309 164L369.5 170.5H406.5L450 164L492.5 156.5L526.5 146.25M341 117L349.5 107.5L337.5 101.5L343.5 61.5L354 35L358.5 43L382 1L388.5 4L362.5 49L354 64L351.5 100L365.5 66.5L383.5 58L387 38.5H400L402 58L418.5 61.5L447 107.5H450.5L428.5 49L424.5 27.5L415.5 4L418.5 1L440 53L457.5 110L450.5 114L452.5 120M341 117L357.5 119M452.5 120L507 123.5L521 137.5M452.5 120L441 124.5M518.5 170.5V153L526.5 149.5V146.25M518.5 170.5L560 173.5L565 177.5L592.5 180.5L610 176L619.5 179L621.5 185.5L619.5 192.5L603.5 211L579 229L511.5 255.5L499.5 260.5M499.5 260.5L490 295L480.5 314L460 326.5L410.5 317.5L376.5 310M499.5 260.5L450 272.5L376.5 310M357.5 119L365.5 106L374 78.5L377.5 75L410.5 73L441 124.5M357.5 119L441 124.5M270.5 144L355.5 154.5L392.5 157.5H413L429.5 154.5L521 137.5M521 137.5L526.5 143V146.25M401.5 299.5L413 301V293L401.5 299.5ZM120 269H129V277.5L134.5 280L136 288.5L140 296V302L127.5 306.5H116.5L110 303V288.5L118 280L120 269Z"
     stroke="black"
     id="path726"
     style="stroke:none" />
  <path
     style="fill:#0088aa;stroke:#000000;stroke-width:1.53602"
     d="m 164.91176,368.07989 c -6.33101,-1.24949 -21.34221,-3.65214 -33.35822,-5.33921 -21.56081,-3.02718 -22.14347,-3.13768 -44.4361,-8.42653 -12.423851,-2.94752 -33.77781,-7.62138 -47.453242,-10.38636 L 14.799774,338.90056 8.3395551,332.489 1.8793363,326.07744 v -4.14716 -4.14717 l 11.7657027,-11.55459 11.765703,-11.5546 22.353087,-13.31041 c 13.535157,-8.05966 34.644365,-19.99323 53.510971,-30.25108 l 31.15789,-16.94068 32.56627,-13.42949 c 26.27929,-10.8369 96.11914,-38.30831 96.57576,-37.98794 0.0616,0.0432 -0.21944,4.36325 -0.6246,9.60003 -0.40514,5.23677 -0.66699,9.58633 -0.58188,9.66568 0.0851,0.0794 5.7867,2.28076 12.67016,4.89203 l 12.51541,4.74775 21.78248,3.96403 c 11.98037,2.18021 33.72802,6.178 48.32811,8.88397 14.6001,2.70597 35.18502,6.4583 45.74429,8.33849 l 19.19865,3.41854 14.39448,-4.13562 c 9.38275,-2.69572 26.06955,-8.19843 47.92706,-15.80465 18.44291,-6.41796 33.58924,-11.73151 33.65849,-11.80788 0.0693,-0.0764 0.68042,-7.52363 1.35815,-16.54945 0.67774,-9.02582 1.29453,-16.4729 1.37069,-16.54905 0.0762,-0.0762 8.68343,0.49014 19.12733,1.25844 10.44384,0.76829 19.45094,1.3969 20.01577,1.3969 0.56484,0 2.16735,0.92897 3.56121,2.06437 l 2.53423,2.06438 13.95412,1.51507 13.95412,1.51508 8.89589,-2.21847 8.89588,-2.21847 3.90602,1.27905 c 2.14827,0.70348 4.14534,1.51816 4.43791,1.8104 0.29256,0.29224 0.88841,1.63364 1.32413,2.98089 0.75841,2.34518 0.75221,2.59082 -0.14621,5.76543 -0.51607,1.82374 -1.51075,3.99854 -2.21038,4.83289 -0.69959,0.83435 -4.25031,4.97078 -7.89049,9.19207 l -6.61846,7.67508 -12.1703,8.96736 -12.1703,8.96736 -34.8257,13.69847 c -19.15415,7.53416 -36.94,14.59562 -39.52409,15.69214 -3.65451,1.55074 -10.26221,3.34616 -29.74139,8.08122 l -25.04303,6.08755 -36.74015,18.75267 -36.74013,18.75268 -23.49171,8.43396 c -12.92043,4.63868 -36.43171,13.52337 -52.24728,19.74376 l -28.75557,11.30981 -31.61811,8.21396 c -24.46394,6.35541 -34.75887,8.80429 -45.49885,10.82295 -7.63441,1.43494 -14.82287,2.58368 -15.97436,2.55275 -1.15148,-0.0309 -7.27353,-1.07855 -13.60455,-2.32805 z m -30.30429,-63.29766 6.10784,-2.20908 0.13978,-3.20893 c 0.13223,-3.0357 0.0246,-3.42201 -1.99417,-7.15566 -1.65965,-3.0695 -2.30906,-4.93496 -2.92177,-8.39293 l -0.7878,-4.44621 -2.73857,-1.18768 -2.73857,-1.18769 v -4.24193 -4.24194 h -5.13487 -5.13486 l -0.48417,2.46663 c -0.2663,1.35665 -0.73983,3.84089 -1.0523,5.52055 -0.53908,2.8978 -0.76823,3.26885 -4.4824,7.25821 l -3.91427,4.2043 v 7.83315 7.83316 l 3.17138,1.69157 3.17138,1.69158 6.34276,-0.009 6.34276,-0.009 6.10785,-2.20908 z"
     id="path853" />
  <path
     style="fill:#0088aa;stroke:none;stroke-width:1.53602"
     d="m 176.65762,369.19845 c -0.64602,-0.10895 -5.08596,-0.92101 -9.86652,-1.80457 -10.83178,-2.00198 -19.26594,-3.35119 -37.82164,-6.05034 -17.47311,-2.54167 -21.34053,-3.2671 -36.881979,-6.91812 -17.24176,-4.05045 -36.501302,-8.24513 -58.02451,-12.63758 l -18.793363,-3.83535 -6.2253018,-6.17221 -6.2253017,-6.1722 v -3.53381 -3.53381 l 11.6283935,-11.56967 11.628394,-11.56968 12.68552,-7.50791 c 26.843966,-15.88758 42.855503,-24.93216 76.676108,-43.31274 16.38533,-8.90497 18.61577,-9.96802 35.70739,-17.01852 28.71227,-11.84415 75.53767,-30.4991 101.25796,-40.34055 l 8.32397,-3.18503 -0.23319,1.94864 c -0.59917,5.00686 -0.98916,12.9601 -0.72881,14.86299 l 0.28843,2.10816 12.4506,4.79294 12.4506,4.79293 44.86916,8.23622 c 67.14418,12.32504 89.03534,16.25306 90.5797,16.25306 3.44082,0 31.89957,-9.01489 66.81472,-21.16492 30.69713,-10.68222 29.99299,-10.41499 30.26018,-11.48405 0.12977,-0.51929 0.7889,-7.91831 1.4648,-16.44227 0.67586,-8.52395 1.32395,-15.59318 1.44014,-15.70939 0.11623,-0.1162 2.3743,0.0392 5.01801,0.34525 2.64367,0.30609 11.13488,0.99276 18.86939,1.52594 7.7345,0.53317 14.50011,1.19571 15.03469,1.47231 0.53457,0.2766 1.83268,1.19807 2.88464,2.04771 l 1.9126,1.54479 14.30518,1.53269 14.30518,1.5327 8.76715,-2.19368 8.76715,-2.19367 3.67495,1.28579 c 3.18566,1.11461 3.78428,1.50471 4.49636,2.93021 0.45184,0.90443 0.81535,2.49012 0.80778,3.52375 -0.0263,3.58363 -1.75802,6.41046 -9.3815,15.31243 l -7.28243,8.50375 -12.14925,8.95664 -12.14926,8.95665 -15.33604,6.05167 c -8.43484,3.32842 -25.78867,10.19258 -38.56412,15.25369 -12.77545,5.06111 -25.24954,9.77972 -27.72021,10.4858 -2.47067,0.70608 -14.2075,3.6651 -26.08186,6.5756 l -21.58973,5.29183 -36.6697,18.71775 -36.6697,18.71775 -16.20927,5.84505 c -24.90605,8.98109 -39.80355,14.61701 -70.74869,26.76513 -16.85943,6.6185 -17.97552,6.98381 -34.53281,11.30293 -23.32536,6.08463 -42.2661,10.80612 -51.10644,12.73966 -7.5264,1.64615 -23.58824,4.51553 -24.62827,4.39974 -0.31607,-0.0352 -1.10323,-0.15313 -1.74925,-0.26208 z m -42.19831,-63.29032 c 3.18239,-1.13747 6.15616,-2.21721 6.60837,-2.39944 0.68339,-0.27538 0.82221,-0.94338 0.82221,-3.95637 0,-3.33595 -0.16747,-3.96915 -2.10007,-7.93988 -1.41458,-2.90641 -2.36957,-5.72063 -2.92567,-8.62157 l -0.82559,-4.30672 -2.71234,-1.17032 -2.71234,-1.17032 v -4.38649 -4.38651 h -6.05237 -6.05236 l -0.81461,4.58089 c -0.44803,2.51948 -1.08317,5.23613 -1.41141,6.037 -0.32824,0.80087 -2.21117,3.23141 -4.18428,5.40121 l -3.58748,3.94508 0.12761,8.42445 0.12761,8.42446 3.28884,1.78904 3.28884,1.78903 6.66444,0.007 6.66444,0.007 5.78616,-2.06811 z"
     id="path924" />
  <path
     style="fill:#d4aa00;stroke:none;stroke-width:1.53602"
     d="m 370.93401,155.03692 c -9.81953,-0.84772 -26.41642,-2.6111 -36.88197,-3.91861 -10.46556,-1.30752 -28.64814,-3.55278 -40.40574,-4.98947 -11.75759,-1.43669 -21.85315,-2.71793 -22.43457,-2.84721 -1.04669,-0.23273 -1.05713,-0.31567 -1.05713,-8.39591 v -8.16086 l 1.52696,-0.27712 c 0.83983,-0.15241 14.27192,-2.18448 29.84909,-4.51571 31.94219,-4.78036 33.84176,-4.91368 46.85133,-3.28836 8.65468,1.08126 8.78486,1.091 56.78846,4.24622 l 36.11577,2.37384 5.34947,-2.14073 c 4.20068,-1.681 5.92912,-2.13909 8.04864,-2.13313 1.48454,0.004 13.78849,0.73462 27.34212,1.62321 l 24.64295,1.61563 6.34263,6.34264 c 4.22373,4.22373 6.11504,6.41729 5.66135,6.5661 -0.63013,0.20667 -50.61355,9.49939 -88.9694,16.54083 l -16.40351,3.01139 -12.25637,-0.0557 c -9.54019,-0.0434 -16.21302,-0.3973 -30.11008,-1.59703 z"
     id="path1270" />
  <path
     style="fill:#ffd42a;stroke:#000000;stroke-width:1.53602;stroke-opacity:1"
     d="m 338.98529,166.51805 -29.59954,-3.22689 -21.61237,-4.71081 c -13.61713,-2.96811 -22.62808,-4.71061 -24.358,-4.71025 l -2.74564,5.6e-4 0.26297,-2.23171 c 0.14464,-1.22744 0.39666,-3.55312 0.56006,-5.16817 l 0.29708,-2.93647 h 4.18238 c 3.0455,0 4.18237,0.16057 4.18237,0.59069 0,0.43157 11.61241,2.01821 43.10728,5.88989 50.88887,6.25578 71.03965,8.08428 89.09192,8.08428 11.03695,0 12.14614,-0.0817 19.50594,-1.43656 4.29194,-0.7901 28.2944,-5.24064 53.3388,-9.89008 l 45.53527,-8.45353 2.50527,2.47415 c 1.73933,1.71772 3.10518,3.33021 3.10518,4.17104 0,1.1847 -0.96619,0.8356 -17.39648,5.78238 l -16.79657,5.05707 -20.96297,3.70153 c -11.52963,2.03584 -30.92435,5.19515 -43.09938,7.02069 l -22.13642,3.31916 -18.6838,-0.05 -18.6838,-0.05 z"
     id="path1272"
     sodipodi:nodetypes="ccsscsscsssssscssscsscccc" />
  <path
     style="fill:#ffd42a;stroke:#000000;stroke-width:1.53602;stroke-opacity:1"
     d="m 396.62201,157.02193 c -21.3817,-0.49711 -37.22313,-2.1066 -106.78676,-10.81717 -10.32412,-1.29275 -18.98974,-3.23243 -19.06103,-3.30371 -0.0713,-0.0713 -0.187,-3.70159 -0.25716,-8.06734 l -0.12754,-7.93772 22.31712,-3.38557 c 38.73,-5.87546 42.44206,-6.16147 57.5553,-4.43457 6.73809,0.76991 27.48133,2.2393 82.22034,5.82422 l 8.92685,0.58463 4.69834,-1.87905 c 6.32943,-2.53138 7.76952,-2.56092 36.47277,-0.74816 l 23.66599,1.49462 6.07024,6.0658 c 3.33863,3.33618 7.40713,6.58883 7.24782,6.74814 -0.32795,0.32795 -11.74613,2.7994 -67.61759,13.12521 -21.64031,3.99942 -40.09818,7.05366 -40.55182,7.00778 -0.45365,-0.0459 -7.14981,-0.0999 -14.77287,-0.27711 z"
     id="path1274"
     sodipodi:nodetypes="sssscssscsscsssss" />
  <path
     style="fill:#ffd42a;stroke:#000000;stroke-width:1.53602;stroke-opacity:1"
     d="m 401.23831,231.33715 c -9.94874,-1.79389 -34.57979,-6.31037 -54.73567,-10.03663 -20.15588,-3.72626 -41.94127,-7.72938 -48.41198,-8.89583 -11.66456,-2.10272 -11.86696,-2.15939 -23.72662,-6.64214 -6.57894,-2.48673 -12.10232,-4.66129 -12.27419,-4.83236 -0.43925,-0.43721 0.6965,-14.68443 2.50606,-31.43668 1.30761,-12.10548 1.64178,-14.17892 2.25486,-13.99098 0.39586,0.12136 9.91675,2.23208 21.15753,4.69049 l 20.43778,4.46984 30.53749,3.29584 30.53751,3.29582 h 18.5157 18.51569 l 21.90715,-3.27458 c 12.04893,-1.80102 31.45172,-4.96099 43.11732,-7.02215 21.05384,-3.71994 21.3273,-3.78284 37.10149,-8.53337 8.74023,-2.63219 16.15561,-4.88619 16.47862,-5.00889 0.3445,-0.13085 0.58729,0.15321 0.58729,0.68713 0,0.69063 -0.93505,1.31679 -3.87613,2.59565 l -3.87613,1.68545 -0.28581,12.13693 c -0.21819,9.26554 -2.08634,38.72724 -2.47011,38.95489 -0.0347,0.0206 -15.07428,5.25272 -33.4213,11.62698 -21.26515,7.38809 -38.4122,13.03783 -47.2994,15.58456 -7.66765,2.19725 -14.22184,3.97625 -14.56486,3.95332 -0.34302,-0.0229 -8.76355,-1.5094 -18.71229,-3.30329 z"
     id="path1276" />
  <path
     style="fill:#4d4d4d;stroke:#000000;stroke-width:1.53602;stroke-opacity:1"
     d="m 113.1892,305.30364 -3.16798,-2.32675 -0.0502,-7.455 0.91059,-7.02413 3.19043,-4.23064 3.05976,-4.28101 2.41697,-4.51539 0.95467,-6.88421 3.7811,1.21163 3.98094,0.0835 v 4.0177 4.01769 l 2.70154,1.28043 c 1.48585,0.70424 3.54304,0.69438 3.58797,0.69981 0.67198,1.27245 0.72744,2.59434 1.00891,4.62568 0.40691,2.93663 1.61202,5.26702 2.98244,7.90113 1.71629,3.29893 3.30008,4.90939 1.89266,6.91387 l 0.0296,2.70269 -7.11753,2.69736 c -5.2286,1.9815 -5.6848,1.66298 -11.39438,1.67655 -5.75013,0.0137 -6.11188,0.32822 -8.75071,-1.14882 z"
     id="path1347"
     sodipodi:nodetypes="ccccccccccccscssscsscc" />
  <path
     style="fill:#4d4d4d;stroke:#000000;stroke-width:1.53602;stroke-opacity:1"
     d="m 433.89665,320.37151 c -21.25957,-3.87704 -50.44884,-9.8613 -54.45518,-11.16416 -0.9661,-0.31417 0.36577,-1.12644 9.2295,-5.62882 5.69719,-2.89392 10.49908,-5.26167 10.67088,-5.26167 0.1718,0 0.1883,0.20074 0.0367,0.44609 -0.15164,0.24535 0.4173,0.56137 1.26431,0.70227 1.62307,0.26999 11.98757,1.67064 12.36236,1.67064 0.12032,0 0.21989,-2.27282 0.22128,-5.05072 l 0.003,-5.05071 18.67339,-9.43996 18.67339,-9.43996 23.13068,-5.56423 c 12.72187,-3.06033 23.2739,-5.421 23.44896,-5.24595 0.17505,0.17505 -1.66744,7.55573 -4.09444,16.40151 l -4.41271,16.08322 -4.71207,9.40885 -4.71208,9.40884 -8.77616,5.40311 c -4.82689,2.97172 -9.36994,5.74119 -10.09566,6.15439 -1.25726,0.71583 -2.50524,0.53503 -26.45563,-3.83274 z"
     id="path1349" />
  <path
     style="fill:#4d4d4d;stroke:#000000;stroke-width:1.53602;stroke-opacity:1"
     d="M 437.25526,116.63631 C 418.51024,84.968719 411.03353,72.363907 410.95824,72.302735 c -0.0486,-0.03947 -7.65824,0.393105 -16.91035,0.96128 l -16.82203,1.033048 -2.04181,2.082615 c -1.98924,2.028988 -2.14693,2.427421 -6.12406,15.472886 -3.98519,13.071926 -4.16671,13.529896 -7.63461,19.263196 -1.95379,3.23011 -2.33865,7.15212 -2.63277,7.47566 -0.42752,0.47028 -3.4949,0.14572 -9.02093,-0.50527 -3.80177,-0.44787 -7.33175,-0.86884 -7.33175,-1.01266 0,-0.14382 2.22869,-2.95474 4.29392,-5.27068 2.06522,-2.31594 3.75663,-4.32301 3.75867,-4.46015 0.002,-0.13714 -2.74563,-1.61103 -6.10593,-3.2753 -6.0602,-3.00146 -6.1076,-3.03746 -5.85803,-4.448988 0.13839,-0.782678 1.493,-9.668636 3.01024,-19.746577 l 2.75863,-18.32353 4.91431,-12.390239 4.91431,-12.390234 1.97048,3.569633 c 1.08377,1.963298 2.11703,3.656035 2.29614,3.761639 0.17911,0.105603 5.50558,-9.094 11.83659,-20.443563 6.33102,-11.349563 11.63162,-20.8433756 11.77911,-21.0973613 0.28356,-0.4882643 5.13492,1.2981737 5.13492,1.8908514 0,0.181566 -4.14774,7.5004079 -9.2172,16.2640939 -5.06946,8.763685 -12.68121,21.984858 -16.91501,29.380381 l -7.6978,13.446412 -1.17361,16.580647 c -1.37196,19.382925 -1.39378,20.189055 -0.54666,20.189055 0.38009,0 3.36119,-6.547807 7.5714,-16.630146 l 6.94447,-16.630144 8.99024,-4.211617 8.99025,-4.211621 1.50743,-8.170489 c 0.82909,-4.493773 1.63151,-8.857627 1.78317,-9.697456 l 0.27573,-1.526961 h 5.80755 5.80755 l 0.27861,2.231712 c 0.15323,1.227442 0.60799,5.508805 1.01057,9.51414 0.40259,4.005336 0.87848,7.405572 1.05753,7.556084 0.17905,0.150511 3.60264,0.955182 7.60798,1.788155 4.00534,0.832979 7.63221,1.61622 8.05972,1.740548 0.42751,0.124323 7.18901,10.578051 15.02557,23.230505 l 14.24827,23.00447 h 2.47575 c 1.36167,0 2.47576,-0.0794 2.47576,-0.17638 0,-0.097 -5.03936,-13.575375 -11.19858,-29.951926 L 429.1134,48.392911 427.16665,37.797731 C 425.2782,27.519863 425.08734,26.858529 420.79368,15.715529 416.4551,4.4559333 416.38488,4.2104195 417.24685,3.3149405 c 0.48367,-0.5024615 0.95534,-0.8195995 1.04817,-0.7047511 0.0928,0.1148483 4.85534,11.5701086 10.58336,25.4561346 l 10.41459,25.247319 8.2404,26.904265 c 4.53223,14.797344 8.43048,27.478352 8.66277,28.180022 0.40566,1.22531 0.2842,1.35202 -3.07128,3.20429 -1.9215,1.06069 -3.49364,1.98633 -3.49364,2.05699 0,0.0707 0.42521,1.36432 0.94489,2.87483 0.5197,1.51051 1.38506,3.96171 1.18838,4.13375 -0.39306,0.34382 -9.58215,3.97575 -10.07554,3.97575 -0.16885,0 -2.25402,-4.3249 -4.43369,-8.00723 z"
     id="path1351"
     sodipodi:nodetypes="csscssssssssssscccssssssscssscccsscccsssssscssscssssscsssssssc" />
</svg>
