<svg width="240" height="300" viewBox="0 0 240 300" fill="none" xmlns="http://www.w3.org/2000/svg">
<path d="M119.999 2.00745C88.7044 2.0079 58.6919 14.4602 36.5637 36.625C14.4354 58.7898 2.00403 88.8514 2.00421 120.197C2.02011 144.94 9.78859 169.054 24.2145 189.14C38.6404 209.226 58.9962 224.27 82.4122 232.152C102.024 261.551 120.472 298.299 121.668 297.984C122.89 298.291 141.96 260.254 161.944 230.625C184.301 222.108 203.546 206.987 217.128 187.266C230.71 167.545 237.987 144.155 237.996 120.197C237.996 104.676 234.944 89.3071 229.014 74.9676C223.084 60.6282 214.393 47.5991 203.436 36.6241C192.478 25.6492 179.471 16.9434 165.154 11.0039C150.838 5.06436 135.494 2.00736 119.999 2.00745Z" fill="#F9F7F4"/>
</svg>
