<svg width="240" height="300" viewBox="0 0 240 300" fill="none" xmlns="http://www.w3.org/2000/svg">
<path d="M119.999 2.00745C88.7044 2.0079 58.6919 14.4602 36.5637 36.625C14.4354 58.7898 2.004 88.8515 2.00418 120.197C2.02008 144.94 9.78856 169.054 24.2145 189.14C38.6404 209.226 58.9961 224.27 82.4122 232.152C102.024 261.551 120.472 298.299 121.668 297.983C122.89 298.291 141.96 260.254 161.944 230.625C184.301 222.108 203.546 206.987 217.128 187.266C230.71 167.545 237.987 144.155 237.996 120.197C237.996 104.676 234.944 89.3071 229.014 74.9676C223.084 60.6282 214.393 47.5991 203.435 36.6241C192.478 25.6492 179.471 16.9434 165.154 11.0039C150.838 5.06436 135.494 2.00736 119.999 2.00745Z" fill="#F9F7F4"/>
<circle cx="120" cy="120" r="101" fill="#7A9B8E"/>
<path d="M162.5 52C167.202 52 171 55.7984 171 60.5C171 75.8531 164.519 88.3375 155.753 98.8828C149.352 106.559 141.463 113.519 133.547 120C141.463 126.508 149.352 133.441 155.753 141.117C164.519 151.636 171 164.147 171 179.5C171 184.202 167.202 188 162.5 188C157.798 188 154 184.202 154 179.5H86C86 184.202 82.2016 188 77.5 188C72.7984 188 69 184.202 69 179.5C69 164.147 75.4812 151.662 84.2469 141.117C90.6484 133.441 98.5375 126.508 106.453 120C98.5375 113.492 90.6484 106.559 84.2469 98.8828C75.4812 88.3375 69 75.8531 69 60.5C69 55.7984 72.7984 52 77.5 52C82.2016 52 86 55.7984 86 60.5H154C154 55.7984 157.798 52 162.5 52ZM144.305 154H95.7219C93.5438 156.789 91.7109 159.605 90.25 162.5H149.803C148.316 159.605 146.483 156.789 144.331 154H144.305ZM132.219 141.25C128.42 137.797 124.303 134.397 120 130.891C115.697 134.37 111.58 137.797 107.781 141.25H132.219ZM95.6953 86H144.278C146.456 83.2109 148.289 80.3953 149.75 77.5H90.2234C91.7109 80.3953 93.5438 83.2109 95.6953 86ZM107.781 98.75C111.58 102.203 115.697 105.603 120 109.109C124.303 105.63 128.42 102.203 132.219 98.75H107.781Z" fill="#F9F7F4"/>
</svg>
