<?xml version="1.0" encoding="UTF-8" standalone="no"?>
<!-- Created with Inkscape (http://www.inkscape.org/) -->

<svg
   width="61.849625mm"
   height="137.18146mm"
   viewBox="0 0 61.849625 137.18146"
   version="1.1"
   id="svg2368"
   xml:space="preserve"
   inkscape:version="1.2.2 (b0a8486541, 2022-12-01)"
   sodipodi:docname="marker_edna_crop.svg"
   xmlns:inkscape="http://www.inkscape.org/namespaces/inkscape"
   xmlns:sodipodi="http://sodipodi.sourceforge.net/DTD/sodipodi-0.dtd"
   xmlns:xlink="http://www.w3.org/1999/xlink"
   xmlns="http://www.w3.org/2000/svg"
   xmlns:svg="http://www.w3.org/2000/svg"><sodipodi:namedview
     id="namedview2370"
     pagecolor="#ffffff"
     bordercolor="#000000"
     borderopacity="0.25"
     inkscape:showpageshadow="2"
     inkscape:pageopacity="0.0"
     inkscape:pagecheckerboard="0"
     inkscape:deskcolor="#d1d1d1"
     inkscape:document-units="mm"
     showgrid="false"
     inkscape:zoom="0.77326038"
     inkscape:cx="142.2548"
     inkscape:cy="458.44842"
     inkscape:window-width="1920"
     inkscape:window-height="1043"
     inkscape:window-x="0"
     inkscape:window-y="0"
     inkscape:window-maximized="1"
     inkscape:current-layer="layer1" /><defs
     id="defs2365"><linearGradient
       inkscape:collect="always"
       id="linearGradient7702"><stop
         style="stop-color:#ff0000;stop-opacity:1;"
         offset="0"
         id="stop7698" /><stop
         style="stop-color:#007dff;stop-opacity:1;"
         offset="1"
         id="stop7700" /></linearGradient><linearGradient
       inkscape:collect="always"
       xlink:href="#linearGradient7702"
       id="linearGradient7704"
       x1="15.269494"
       y1="50.061893"
       x2="47.197971"
       y2="49.936806"
       gradientUnits="userSpaceOnUse" /></defs><g
     inkscape:label="Calque 1"
     inkscape:groupmode="layer"
     id="layer1"><path
       d="M 0.026459,49.900417 C 0.026459,22.330834 13.864233,0 30.932858,0 c 17.068626,0 30.916766,22.481774 30.916766,50.237707 0,31.77814 -19.35518,69.869313 -27.438631,84.386573 -1.90009,3.40956 -5.072278,3.40956 -6.972374,0 C 19.355177,120.10702 0,82.015847 0,50.237707 Z m 31.123296,28.12626 c 14.428959,0 26.160179,-12.63868 26.160179,-28.18381 0,-15.545135 -11.73122,-28.183814 -26.160179,-28.183814 -14.428967,0 -26.160166,12.638679 -26.160166,28.183814 0,15.54513 11.731199,28.18381 26.160166,28.18381 z"
       id="path9"
       style="fill:#1a1a1a;stroke-width:0.264583"
       sodipodi:nodetypes="cssccccsssss" /><path
       d="m 44.421787,29.171222 c 1.433059,0 2.590839,1.157781 2.590839,2.590839 0,4.679687 -1.975518,8.484976 -4.647316,11.699225 -1.95122,2.339851 -4.355836,4.461093 -6.768549,6.436603 2.412713,1.983607 4.817329,4.096752 6.768549,6.436603 2.671798,3.206153 4.647316,7.019538 4.647316,11.699233 0,1.43305 -1.15778,2.590831 -2.590839,2.590831 -1.433051,0 -2.590831,-1.157781 -2.590831,-2.590831 H 21.104291 c 0,1.43305 -1.157778,2.590831 -2.590833,2.590831 -1.433055,0 -2.590833,-1.157781 -2.590833,-2.590831 0,-4.679695 1.97551,-8.484984 4.647307,-11.699233 1.951221,-2.339851 4.355836,-4.452996 6.768552,-6.436603 -2.412716,-1.983607 -4.817331,-4.096752 -6.768552,-6.436603 -2.671797,-3.214249 -4.647307,-7.019538 -4.647307,-11.699225 0,-1.433058 1.157778,-2.590839 2.590833,-2.590839 1.433055,0 2.590833,1.157781 2.590833,2.590839 h 20.726665 c 0,-1.433058 1.15778,-2.590839 2.590831,-2.590839 z M 38.875783,60.261223 H 24.067556 c -0.6639,0.850116 -1.22255,1.708328 -1.66785,2.590831 H 40.551733 C 40.098337,61.969551 39.539684,61.111339 38.88388,60.261223 Z m -3.683839,-3.886248 c -1.157773,-1.052524 -2.412713,-2.088863 -3.724322,-3.15758 -1.311609,1.060621 -2.566541,2.105056 -3.724323,3.15758 z M 24.059459,39.534556 h 14.808227 c 0.663909,-0.850117 1.222554,-1.708329 1.667854,-2.590832 H 22.391612 c 0.453394,0.882503 1.012044,1.740715 1.667847,2.590832 z m 3.68384,3.886255 c 1.157782,1.052524 2.412714,2.088855 3.724323,3.157572 1.311609,-1.060621 2.566549,-2.105048 3.724322,-3.157572 z"
       id="path3585"
       style="fill:url(#linearGradient7704);fill-opacity:1;stroke-width:0.211474"
       sodipodi:nodetypes="sscccssccsscccssccsccccccccccccccccccc" /></g></svg>
