<svg width="240" height="300" viewBox="0 0 240 300" fill="none" xmlns="http://www.w3.org/2000/svg">
<path d="M119.999 2.00745C88.7044 2.0079 58.6919 14.4602 36.5636 36.625C14.4354 58.7898 2.00397 88.8515 2.00415 120.197C2.02005 144.94 9.78853 169.054 24.2144 189.14C38.6404 209.226 58.9961 224.27 82.4121 232.152C102.024 261.551 120.472 298.299 121.668 297.983C122.89 298.291 141.96 260.254 161.944 230.625C184.301 222.108 203.546 206.987 217.128 187.266C230.71 167.545 237.987 144.155 237.996 120.197C237.996 104.676 234.944 89.3071 229.014 74.9676C223.084 60.6282 214.393 47.5991 203.435 36.6241C192.478 25.6492 179.47 16.9434 165.154 11.0039C150.838 5.06436 135.494 2.00736 119.999 2.00745Z" fill="#F9F7F4"/>
<circle cx="120" cy="120" r="101" fill="#4A7A85"/>
<g clip-path="url(#clip0_13_16)">
<mask id="mask0_13_16" style="mask-type:luminance" maskUnits="userSpaceOnUse" x="27" y="71" width="186" height="97">
<path d="M213 71H27V168H213V71Z" fill="white"/>
</mask>
<g mask="url(#mask0_13_16)">
<path fill-rule="evenodd" clip-rule="evenodd" d="M117.945 97.0216L122.694 116.228L110.408 119.714L105.659 100.507L117.945 97.0216ZM156.027 85.679C161.822 84.6982 167.167 88.5562 167.966 94.2962L167.715 98.3172L170.138 97.7445C172.982 97.2338 175.674 97.2098 177.76 97.4847C185.458 98.2986 188.848 103.679 192.974 107.54L192.363 108.032L194.714 107.385C202.02 106.148 208.78 111.144 209.808 118.542C209.937 119.467 209.97 120.386 209.915 121.287L209.609 123.213L210.155 123.581L212.741 127.556C213.099 128.105 212.951 128.858 212.413 129.239L202.801 136.032C202.262 136.413 201.537 136.275 201.18 135.726L199.909 133.774L198.736 134.097L197.982 135.357C197.212 136.215 196.075 136.859 194.75 137.083C192.101 137.531 189.709 136.133 189.407 133.96L189.562 132.447L188.541 131.837C185.809 129.819 183.863 126.72 183.347 123.021C182.704 118.397 184.449 113.928 187.634 110.925L187.979 110.657L185.948 108.549C183.293 106.187 180.234 104.55 176.819 103.366C174.076 103.447 171.34 103.805 168.603 104.233L162.393 105.205L161.005 105.896C160.341 106.15 159.645 106.343 158.92 106.465C158.196 106.588 157.479 106.635 156.777 106.612L156.422 106.565L125.44 115.355L120.693 96.1487L151.924 87.2876L152.056 87.187C153.238 86.4486 154.578 85.9241 156.027 85.679ZM64.0541 71.0933C76.348 79.4794 77.7014 91.9506 84.5235 102.379L103.782 128.846C122.233 114.835 141.776 112.018 162.178 110.899L167.424 110.659L167.529 110.63C168.335 110.494 169.133 110.442 169.916 110.468L170.342 110.525L170.973 110.496L171.029 110.617L172.202 110.775C176.641 111.83 180.158 115.465 180.829 120.281C181.164 122.689 180.74 125.052 179.738 127.121L179.162 128.074L173.066 135.263C165.768 140.475 159.085 145.741 152.591 152.075L147.276 157.619L147.266 157.838L147.122 158.239L169.497 163.707L168.451 167.942L144.788 162.16L143.43 163.212C142.789 163.565 142.089 163.814 141.346 163.941C137.381 164.611 133.66 161.503 133.033 156.996C132.562 153.617 133.966 150.412 136.37 148.737L136.699 148.556L136.571 148.418C138.857 145.706 141.572 143.477 143.429 140.279C133.42 142.322 124.407 147.128 115.268 151.588L112.85 152.697L112.776 152.839C111.418 154.581 109.384 155.859 106.999 156.263C104.612 156.667 102.325 156.12 100.555 154.908L100.424 154.772L100.334 154.755C87.0218 151.94 73.8262 146.936 60.5584 143.279L27.1207 145.311C38.4125 142.283 33.4237 127.357 32.0374 116.426C46.0124 114.666 57.7919 124.372 68.3575 129.259C75.0886 131.725 82.1225 133.443 89.0042 135.535L73.0169 112.142L45.923 99.4226C50.5997 97.84 52.8643 91.0834 54.9313 86.3142C56.1656 78.9643 60.0769 75.2786 64.0541 71.0933Z" fill="#F9F7F4"/>
</g>
</g>
<defs>
<clipPath id="clip0_13_16">
<rect width="186" height="97" fill="white" transform="translate(27 71)"/>
</clipPath>
</defs>
</svg>
