<?xml version="1.0" encoding="UTF-8" standalone="no"?>
<!-- Created with Inkscape (http://www.inkscape.org/) -->

<svg
   width="61.849998mm"
   height="137.18146mm"
   viewBox="0 0 61.849998 137.18146"
   version="1.1"
   id="svg9213"
   xml:space="preserve"
   inkscape:version="1.2.2 (b0a8486541, 2022-12-01)"
   sodipodi:docname="marker_empty.svg"
   xmlns:inkscape="http://www.inkscape.org/namespaces/inkscape"
   xmlns:sodipodi="http://sodipodi.sourceforge.net/DTD/sodipodi-0.dtd"
   xmlns="http://www.w3.org/2000/svg"
   xmlns:svg="http://www.w3.org/2000/svg"><sodipodi:namedview
     id="namedview9215"
     pagecolor="#ffffff"
     bordercolor="#000000"
     borderopacity="0.25"
     inkscape:showpageshadow="2"
     inkscape:pageopacity="0.0"
     inkscape:pagecheckerboard="0"
     inkscape:deskcolor="#d1d1d1"
     inkscape:document-units="mm"
     showgrid="false"
     inkscape:zoom="0.77326038"
     inkscape:cx="397.02021"
     inkscape:cy="148.07431"
     inkscape:window-width="1920"
     inkscape:window-height="1043"
     inkscape:window-x="0"
     inkscape:window-y="0"
     inkscape:window-maximized="1"
     inkscape:current-layer="layer1" /><defs
     id="defs9210" /><g
     inkscape:label="Calque 1"
     inkscape:groupmode="layer"
     id="layer1"><path
       d="M 0.02646016,49.900417 C 0.02646016,22.330837 13.864326,0 30.933048,0 48.001784,0 61.85,22.481777 61.85,50.237707 c 0,31.77814 -19.3553,69.869313 -27.43879,84.386573 -1.900102,3.40956 -5.072312,3.40956 -6.972424,0 C 19.355296,120.10702 0,82.015847 0,50.237707 Z M 31.149949,78.026677 c 14.42905,0 26.160333,-12.63868 26.160333,-28.18381 0,-15.54514 -11.731283,-28.18381 -26.160333,-28.18381 -14.429055,0 -26.160328,12.63867 -26.160328,28.18381 0,15.54513 11.731273,28.18381 26.160328,28.18381 z"
       id="path9"
       style="stroke-width:0.264584;fill:#1a1a1a"
       sodipodi:nodetypes="cssccccsssss" /></g></svg>
