<svg width="240" height="300" viewBox="0 0 240 300" fill="none" xmlns="http://www.w3.org/2000/svg">
<path d="M119.999 2.00745C88.7044 2.0079 58.6919 14.4602 36.5637 36.625C14.4354 58.7898 2.004 88.8515 2.00418 120.197C2.02008 144.94 9.78856 169.054 24.2145 189.14C38.6404 209.226 58.9961 224.27 82.4122 232.152C102.024 261.551 120.472 298.299 121.668 297.983C122.89 298.291 141.96 260.254 161.944 230.625C184.301 222.108 203.546 206.987 217.128 187.266C230.71 167.545 237.987 144.155 237.996 120.197C237.996 104.676 234.944 89.3071 229.014 74.9676C223.084 60.6282 214.393 47.5991 203.435 36.6241C192.478 25.6492 179.471 16.9434 165.154 11.0039C150.838 5.06436 135.494 2.00736 119.999 2.00745Z" fill="#F9F7F4"/>
<circle cx="120" cy="120" r="101" fill="#4A7A85"/>
<g clip-path="url(#clip0_1_87)">
<path d="M193.038 104.479C191.126 101.753 188.125 100.084 184.801 99.8992C179.754 99.6191 175.141 102.934 173.82 107.781C173.184 110.116 172.088 112.543 170.426 115.273C167.858 112.811 166.542 109.778 166.304 105.798C166.13 102.899 164.838 100.242 162.665 98.3152C160.492 96.3876 157.695 95.4217 154.802 95.5978C151.903 95.7715 149.246 97.0638 147.319 99.2362C145.393 101.409 144.427 104.202 144.601 107.1C145.153 116.296 148.685 124.302 154.868 130.468C152.815 131.655 150.619 132.73 148.295 133.686C147.252 129.827 146.006 126.122 144.792 122.511C142.085 114.457 139.528 106.85 139.271 98.5638C139.183 95.7547 139.241 92.4082 139.44 88.5898C148.583 87.5953 160.162 84.6691 168.147 76.7342C170.206 74.6871 171.346 71.9611 171.355 69.0576C171.364 66.1541 170.241 63.4207 168.195 61.3616C166.148 59.3015 163.422 58.1622 160.518 58.1534C160.507 58.1534 160.495 58.1534 160.484 58.1534C157.593 58.1534 154.873 59.2747 152.822 61.3132C150.607 63.5145 146.68 65.2292 141.563 66.2647C142.274 60.677 142.885 56.7696 142.916 56.5732C143.854 50.6538 139.802 45.0738 133.883 44.1351C127.961 43.196 122.382 47.2486 121.443 53.1683C121.261 54.3164 116.989 81.4901 117.54 99.2383C117.898 110.734 121.238 120.672 124.186 129.443C127.896 140.479 130.763 149.008 127.979 158.564C124.531 150.595 120.262 143.026 115.239 135.988C112.435 132.058 109.492 128.108 106.368 123.914C100.047 115.43 93.5306 106.684 88.3523 98.2539C95.7068 93.1478 103.889 83.1564 106.179 63.6885C106.879 57.7355 102.605 52.3227 96.6521 51.6229C90.6958 50.9227 85.2866 55.1977 84.5867 61.1492C83.6324 69.2673 81.3479 74.2137 79.1348 77.196C79.0003 76.3652 78.9154 75.5692 78.8806 74.8116C78.7461 71.906 77.4888 69.2281 75.34 67.2715C73.1944 65.3183 70.4204 64.3205 67.5192 64.4544C61.532 64.7311 56.886 69.8273 57.1621 75.8149C57.9027 91.8407 68.3294 108.552 79.8214 124.527C73.707 124.223 66.4351 122.96 62.6282 119.021C60.6044 116.927 57.8864 115.75 54.9741 115.707C52.0732 115.659 49.3095 116.759 47.2238 118.792C45.1785 120.786 44.0368 123.485 44.0097 126.393C43.9823 129.364 45.1622 132.278 47.2479 134.388C54.7886 142.017 66.2257 146.036 81.2423 146.333C86.7851 146.442 91.7764 146.011 95.3388 145.562C96.1354 146.655 96.8626 147.663 97.5419 148.615C110.837 167.247 113.851 185.552 113.876 185.709C114.482 189.836 117.451 193.295 121.44 194.52C122.476 194.838 123.549 194.999 124.63 194.999C127.67 194.999 130.592 193.714 132.647 191.473C135.432 188.433 137.921 185.354 140.066 182.296C142.366 182.807 145.31 183.305 148.526 183.471C149.291 183.51 150.056 183.53 150.799 183.53C164.156 183.53 171.23 177.267 174.812 172.012C176.448 169.613 177.051 166.721 176.512 163.868C175.972 161.015 174.354 158.543 171.955 156.907C169.557 155.271 166.664 154.668 163.811 155.207C160.958 155.747 158.485 157.365 156.85 159.764C155.809 161.291 153.222 161.974 149.571 161.745C150.005 159.848 150.325 157.931 150.53 156.007C171.991 149.038 183.177 136.338 188.812 126.77C191.247 122.635 193.171 118.252 194.529 113.745C195.485 110.574 194.942 107.196 193.038 104.479Z" fill="#F9F7F4"/>
</g>
<defs>
<clipPath id="clip0_1_87">
<rect width="151" height="151" fill="white" transform="translate(44 44)"/>
</clipPath>
</defs>
</svg>
