<?xml version="1.0" encoding="UTF-8" standalone="no"?>
<!-- Created with Inkscape (http://www.inkscape.org/) -->

<svg
   width="61.849621mm"
   height="137.18158mm"
   viewBox="0 0 61.849621 137.18158"
   version="1.1"
   id="svg691"
   xml:space="preserve"
   inkscape:version="1.2.2 (b0a8486541, 2022-12-01)"
   sodipodi:docname="marker_externe_crop.svg"
   xmlns:inkscape="http://www.inkscape.org/namespaces/inkscape"
   xmlns:sodipodi="http://sodipodi.sourceforge.net/DTD/sodipodi-0.dtd"
   xmlns="http://www.w3.org/2000/svg"
   xmlns:svg="http://www.w3.org/2000/svg"><sodipodi:namedview
     id="namedview693"
     pagecolor="#ffffff"
     bordercolor="#000000"
     borderopacity="0.25"
     inkscape:showpageshadow="2"
     inkscape:pageopacity="0.0"
     inkscape:pagecheckerboard="0"
     inkscape:deskcolor="#d1d1d1"
     inkscape:document-units="mm"
     showgrid="false"
     inkscape:zoom="0.77326038"
     inkscape:cx="146.13448"
     inkscape:cy="354.99038"
     inkscape:window-width="1920"
     inkscape:window-height="1043"
     inkscape:window-x="0"
     inkscape:window-y="0"
     inkscape:window-maximized="1"
     inkscape:current-layer="layer1-6" /><defs
     id="defs688" /><g
     inkscape:label="Calque 1"
     inkscape:groupmode="layer"
     id="layer1"
     transform="translate(-0.244595,-0.133171)"><g
       inkscape:label="Calque 1"
       id="layer1-6"
       transform="translate(-50.608245,-21.249961)"><path
         d="m 50.879299,71.283556 c 0,-27.569583 13.837774,-49.900424 30.906399,-49.900424 17.06863,0 30.916762,22.481781 30.916762,50.237713 0,31.778155 -19.355179,69.869435 -27.438627,84.386695 -1.90009,3.40956 -5.072278,3.40956 -6.972374,0 C 70.208017,141.49028 50.85284,103.399 50.85284,71.620845 Z m 31.123296,28.126259 c 14.428959,0 26.160175,-12.638683 26.160175,-28.183811 0,-15.545133 -11.731216,-28.183812 -26.160175,-28.183812 -14.428967,0 -26.160166,12.638679 -26.160166,28.183812 0,15.545128 11.731199,28.183811 26.160166,28.183811 z"
         id="path9"
         style="fill:#1a1a1a;stroke-width:0.264583"
         sodipodi:nodetypes="cssccccsssss" /><g
         id="g464"
         transform="matrix(0.07516097,0,0,0.07392767,62.317254,52.064876)"><path
           style="fill:#3eac92"
           d="m 416.257,398.107 c 1.918,-27.394 -72.954,-21.077 -84.13,-46.985 -11.176,-25.908 9.504,-75.214 -34.783,-95.369 -44.287,-20.155 -71.042,23.498 -42.157,35.471 28.885,11.973 25.438,42.348 23.397,54.774 -2.04,12.426 -18.852,41.059 18.761,60.282 37.613,19.221 39.66,33.066 39.66,33.066 0,0 87.191,12.054 85.435,12.054 -1.755,0 -6.183,-53.293 -6.183,-53.293 z"
           id="path375" /><path
           style="fill:#57eecf"
           d="m 305.697,357.29 c 2.151,0.26 4.183,1.41 5.502,3.337 0.272,0.393 16.108,23.009 46.178,39.964 37.194,20.971 30.211,48.021 29.895,49.162 l -15.032,-4.156 -0.038,0.147 c 0.159,-0.681 3.584,-16.869 -22.484,-31.569 -33.511,-18.894 -50.68,-43.701 -51.394,-44.748 -2.428,-3.557 -1.513,-8.409 2.045,-10.837 1.624,-1.108 3.518,-1.519 5.328,-1.3 z"
           id="path377" /><path
           style="fill:#b8d6fd"
           d="M 43.087,39.848 C 59.386,24.012 88.347,1.517 121.359,1.517 c 50.944,0 92.243,53.571 92.243,53.571 0,0 -41.299,53.571 -92.243,53.571 -33.727,0 -63.227,-23.481 -79.314,-39.351 z"
           id="path379" /><path
           style="fill:#328777"
           d="m 51.406,510.484 c 0,0 12.477,-49.906 59.264,-50.946 46.787,-1.04 34.311,-30.152 55.105,-39.509 20.794,-9.357 71.74,21.834 160.116,20.794 88.376,-1.04 79.018,-29.112 90.455,-42.628 11.437,-13.516 36.39,-22.874 28.072,-35.35 -8.318,-12.476 -34.311,-122.687 3.119,-155.957 37.43,-33.27 -23.913,-50.946 -15.596,-79.018 8.317,-28.072 53.026,-42.628 60.304,-57.184 C 499.523,56.13 512,55.088 512,55.088 V 509.444 H 53.485"
           id="path381" /><path
           style="fill:#266659"
           d="m 492.245,70.684 c -1.076,2.152 -2.985,4.305 -5.459,6.5 v 362.825 c 0,24.012 -19.466,43.477 -43.477,43.477 H 64.904 c -10.052,13.226 -13.499,26.998 -13.499,26.998 l 2.079,-1.04 H 512 V 55.088 c 0,0 -12.477,1.04 -19.755,15.596 z"
           id="path383" /><path
           style="fill:#3c66b1"
           d="m 3.075,15.579 46.486,30.506 c 6.618,4.343 6.618,14.044 0,18.387 L 41.681,69.644 3.075,94.98 18.863,55.47 Z"
           id="path385" /><g
           id="g391">
	<path
   style="fill:#ffda44"
   d="M 156.417,41.052 H 90.915 c -4.307,0 -7.798,-3.49 -7.798,-7.798 0,-4.308 3.491,-7.798 7.798,-7.798 h 65.502 c 4.307,0 7.798,3.49 7.798,7.798 0,4.308 -3.491,7.798 -7.798,7.798 z"
   id="path387" />
	<path
   style="fill:#ffda44"
   d="M 156.417,83.68 H 90.915 c -4.307,0 -7.798,-3.49 -7.798,-7.798 0,-4.308 3.491,-7.798 7.798,-7.798 h 65.502 c 4.307,0 7.798,3.49 7.798,7.798 0,4.308 -3.491,7.798 -7.798,7.798 z"
   id="path389" />
</g><g
           id="g397">
	<path
   style="fill:#3c66b1"
   d="m 175.341,21.03 c 0.078,-0.113 0.142,-0.231 0.213,-0.347 -4.22,-2.829 -8.709,-5.523 -13.427,-7.942 -18.572,27.478 -18.883,59.599 -0.801,86.095 4.722,-2.377 9.222,-5.036 13.456,-7.836 -0.145,-0.277 -0.302,-0.55 -0.482,-0.813 -14.529,-21.176 -14.14,-47.03 1.041,-69.157 z"
   id="path393" />
	<path
   style="opacity:0.11;fill:#3c66b1;enable-background:new"
   d="m 214.1,55.088 c 0,0 -4.055,-5.26 -11.19,-12.482 -5.848,6.717 -18.556,20.138 -35.472,31.285 0.069,0.12 0.148,0.235 0.211,0.357 -4.234,2.8 -8.734,5.46 -13.456,7.836 -0.084,-0.124 -0.162,-0.25 -0.245,-0.373 -12.031,6.02 -25.5,10.198 -39.722,10.198 -33.687,0 -63.154,-23.423 -79.254,-39.293 L 34.549,52.894 15.36,65.484 3.575,94.98 42.18,69.644 42.603,69.366 c 16.1,15.87 45.568,39.293 79.254,39.293 14.222,0 27.692,-4.178 39.722,-10.198 0.083,0.124 0.161,0.25 0.245,0.373 4.722,-2.377 9.222,-5.036 13.456,-7.836 -0.063,-0.121 -0.142,-0.237 -0.211,-0.357 C 198.684,75.084 214.1,55.088 214.1,55.088 Z"
   id="path395" />
</g><path
           style="fill:#b8d6fd"
           d="m 215.887,158.628 c 9.788,-20.509 29.139,-51.658 60.097,-63.119 47.776,-17.686 105.103,18.217 105.103,18.217 0,0 -20.133,64.576 -67.908,82.261 -31.63,11.708 -67.446,-0.071 -88.042,-9.37 z"
           id="path399" /><path
           style="fill:#3c66b1"
           d="m 169.939,149.759 54.185,12.471 c 7.714,1.776 11.081,10.873 6.383,17.244 l -5.595,7.585 -27.409,37.162 1.09,-42.533 z"
           id="path401" /><g
           id="g407">
	<path
   style="fill:#ffda44"
   d="m 322.587,120.415 -61.429,22.74 c -4.038,1.495 -8.525,-0.567 -10.02,-4.606 -1.495,-4.039 0.567,-8.525 4.606,-10.02 l 61.429,-22.74 c 4.038,-1.495 8.525,0.567 10.02,4.606 1.495,4.04 -0.568,8.525 -4.606,10.02 z"
   id="path403" />
	<path
   style="fill:#ffda44"
   d="m 337.385,160.392 -61.429,22.74 c -4.038,1.495 -8.525,-0.567 -10.02,-4.606 -1.495,-4.039 0.567,-8.525 4.606,-10.02 l 61.429,-22.74 c 4.038,-1.495 8.525,0.567 10.02,4.606 1.495,4.04 -0.568,8.525 -4.606,10.02 z"
   id="path405" />
</g><g
           id="g413">
	<path
   style="fill:#3c66b1"
   d="m 333.383,95.069 c 0.033,-0.133 0.053,-0.266 0.079,-0.399 -4.94,-1.188 -10.085,-2.156 -15.349,-2.787 -7.879,32.217 2.981,62.448 29.137,81.018 3.604,-3.869 6.901,-7.925 9.899,-12.02 -0.232,-0.209 -0.473,-0.411 -0.735,-0.596 -20.977,-14.815 -29.586,-39.194 -23.031,-65.216 z"
   id="path409" />
	<path
   style="opacity:0.11;fill:#3c66b1;enable-background:new"
   d="m 381.555,113.553 c 0,0 -5.629,-3.525 -14.827,-7.821 -3.152,8.329 -10.411,25.327 -22.406,41.654 0.106,0.088 0.22,0.169 0.322,0.261 -2.999,4.096 -6.294,8.152 -9.899,12.02 -0.123,-0.086 -0.238,-0.178 -0.36,-0.265 -9.192,9.821 -20.374,18.415 -33.712,23.353 -31.592,11.695 -67.358,-0.043 -87.966,-9.336 l -0.3,0.408 -13.623,18.47 -0.813,31.752 27.41,-37.162 0.3,-0.408 c 20.608,9.294 56.374,21.03 87.966,9.336 13.339,-4.938 24.52,-13.531 33.712,-23.353 0.122,0.087 0.238,0.179 0.36,0.265 3.604,-3.869 6.901,-7.925 9.899,-12.02 -0.102,-0.091 -0.215,-0.173 -0.322,-0.261 16.742,-22.788 24.259,-46.893 24.259,-46.893 z"
   id="path411" />
</g><path
           style="fill:#b8d6fd"
           d="m 59.967,270.509 c 21.554,-7.199 57.407,-14.903 87.151,-0.583 45.901,22.099 59.873,88.281 59.873,88.281 0,0 -60.449,30.353 -106.351,8.254 C 70.251,351.83 53.857,317.877 46.247,296.599 Z"
           id="path415" /><path
           style="fill:#3c66b1"
           d="m 34.443,231.286 28.65,47.652 c 4.079,6.783 -0.13,15.525 -7.976,16.567 L 45.774,296.746 0,302.827 31.363,274.077 Z"
           id="path417" /><g
           id="g423">
	<path
   style="fill:#ffda44"
   d="m 161.555,320.755 -59.018,-28.414 c -3.88,-1.868 -5.512,-6.528 -3.643,-10.409 1.868,-3.881 6.528,-5.512 10.409,-3.643 l 59.018,28.414 c 3.88,1.868 5.512,6.528 3.643,10.409 -1.868,3.88 -6.528,5.511 -10.409,3.643 z"
   id="path419" />
	<path
   style="fill:#ffda44"
   d="M 143.064,359.164 84.045,330.75 c -3.88,-1.868 -5.512,-6.527 -3.643,-10.409 1.868,-3.881 6.528,-5.512 10.409,-3.643 l 59.018,28.414 c 3.88,1.868 5.512,6.527 3.643,10.409 -1.868,3.88 -6.528,5.511 -10.408,3.643 z"
   id="path421" />
</g><g
           id="g429">
	<path
   style="fill:#3c66b1"
   d="m 187.291,310.925 c 0.12,-0.069 0.229,-0.147 0.342,-0.22 -2.574,-4.379 -5.451,-8.754 -8.653,-12.981 -28.654,16.701 -42.867,45.508 -38.068,77.226 5.286,-0.093 10.494,-0.538 15.524,-1.224 -0.01,-0.312 -0.033,-0.626 -0.082,-0.942 -3.904,-25.383 7.661,-48.507 30.937,-61.859 z"
   id="path425" />
	<path
   style="opacity:0.11;fill:#3c66b1;enable-background:new"
   d="m 207.441,358.424 c 0,0 -1.372,-6.498 -4.668,-16.101 -8.183,3.515 -25.454,10.096 -45.532,12.801 0.01,0.137 0.031,0.277 0.035,0.413 -5.03,0.686 -10.237,1.131 -15.524,1.224 -0.023,-0.148 -0.037,-0.295 -0.059,-0.443 -13.451,0.205 -27.399,-1.874 -40.214,-8.043 -30.352,-14.613 -46.743,-48.5 -54.365,-69.783 l -0.502,0.067 -22.75,3.022 -23.412,21.463 45.775,-6.081 0.502,-0.067 c 7.622,21.283 24.012,55.17 54.365,69.783 12.815,6.17 26.763,8.248 40.214,8.043 0.022,0.148 0.036,0.295 0.059,0.443 5.286,-0.093 10.494,-0.538 15.524,-1.224 -0.004,-0.136 -0.025,-0.276 -0.035,-0.413 28.022,-3.775 50.587,-15.104 50.587,-15.104 z"
   id="path427" />
</g></g></g></g></svg>
