<svg width="240" height="300" viewBox="0 0 240 300" fill="none" xmlns="http://www.w3.org/2000/svg">
<path d="M119.999 2.00745C88.7044 2.0079 58.6919 14.4602 36.5637 36.625C14.4354 58.7898 2.00403 88.8515 2.00421 120.197C2.02011 144.94 9.78859 169.054 24.2145 189.14C38.6404 209.226 58.9962 224.27 82.4122 232.152C102.024 261.551 120.472 298.299 121.668 297.983C122.89 298.291 141.96 260.254 161.944 230.625C184.301 222.108 203.546 206.987 217.128 187.266C230.71 167.545 237.987 144.155 237.996 120.197C237.996 104.676 234.944 89.3071 229.014 74.9676C223.084 60.6282 214.393 47.5991 203.436 36.6241C192.478 25.6492 179.471 16.9434 165.154 11.0039C150.838 5.06436 135.494 2.00736 119.999 2.00745Z" fill="#F9F7F4"/>
<circle cx="120" cy="120" r="101" fill="#2D4A45"/>
<g clip-path="url(#clip0_1_95)">
<path d="M126.623 38C129.105 38 131.12 39.9922 131.16 42.4648C142.64 46.0874 151.896 54.759 156.313 65.8652C156.8 65.6851 157.326 65.5831 157.876 65.583C160.383 65.583 162.414 67.6147 162.414 70.1211V92.4648C162.414 94.9713 160.383 97.0029 157.876 97.0029C157.135 97.0029 156.434 96.8237 155.816 96.5078C155.498 97.2364 155.16 97.9538 154.801 98.6592L167.755 105.015C173.946 108.052 177.943 114.462 177.943 121.358V135.668C177.943 144.084 172.202 151.177 164.435 153.254L167.164 181.15C167.661 186.221 165.983 191.29 162.561 195.063C159.139 198.837 154.256 201 149.162 201H89.1459C84.0524 201 79.1692 198.836 75.7474 195.063C72.3258 191.291 70.6475 186.221 71.1429 181.151V181.15L76.4388 127.035C76.9043 122.276 79.0348 118.072 82.222 114.971C82.2113 114.657 82.2045 114.342 82.2045 114.025V111.655C82.2045 109.149 84.2361 107.117 86.7426 107.117H89.2826C86.4949 103.981 84.1934 100.405 82.4945 96.5059C81.8755 96.8223 81.1747 97.0029 80.432 97.0029C77.9257 97.0028 75.8939 94.9712 75.8939 92.4648V70.1211C75.894 67.6148 77.9257 65.5832 80.432 65.583C80.9826 65.583 81.5086 65.6852 81.9955 65.8652C86.4117 54.7595 95.6678 46.0888 107.148 42.4658C107.186 39.9928 109.203 38.0002 111.685 38H126.623ZM85.558 127.263C85.523 127.479 85.4937 127.698 85.472 127.919L80.1771 182.034C79.9262 184.6 80.7379 187.056 82.4701 188.966C84.2021 190.876 86.5678 191.924 89.1459 191.924H90.182C89.8351 171.33 87.3331 140.892 86.2445 128.452C86.0069 128.062 85.7772 127.666 85.558 127.263ZM152.75 127.262C152.531 127.666 152.301 128.063 152.063 128.454C150.974 140.895 148.475 171.331 148.127 191.924H149.162C151.741 191.924 154.106 190.876 155.838 188.966C157.57 187.056 158.383 184.601 158.132 182.034L152.837 127.919C152.816 127.697 152.785 127.478 152.75 127.262ZM134.285 149.559C134.95 150.346 135.355 151.364 135.355 152.479V166.895C135.355 172.721 130.616 177.46 124.789 177.46H113.52C107.693 177.46 102.955 172.721 102.954 166.895V152.479C102.955 151.364 103.359 150.345 104.025 149.558L96.3998 141.071C97.5757 155.936 99.004 176.583 99.2572 191.924H139.052C139.305 176.583 140.733 155.936 141.909 141.071L134.285 149.559ZM112.03 166.895C112.03 167.715 112.699 168.384 113.52 168.384H124.789C125.61 168.384 126.279 167.715 126.279 166.895V157.019H112.03V166.895ZM128.242 141.889H110.068C109.819 141.889 109.571 141.883 109.324 141.876L114.774 147.942H123.536L128.985 141.876C128.738 141.883 128.49 141.889 128.242 141.889ZM155.232 108.979C155.78 109.73 156.105 110.654 156.105 111.654V114.024C156.105 114.341 156.097 114.657 156.086 114.97C159.274 118.071 161.405 122.275 161.87 127.035L163.527 143.969C166.675 142.526 168.866 139.347 168.867 135.668V134.668H168.868V121.358C168.868 117.905 166.859 114.683 163.758 113.162L155.232 108.979ZM91.4066 116.193C92.4848 125.534 100.443 132.812 110.068 132.812H128.242C137.866 132.812 145.824 125.534 146.903 116.193H137.306C131.855 118.983 125.685 120.561 119.155 120.561C112.624 120.561 106.454 118.983 101.004 116.193H91.4066ZM119.155 49.6963C102.121 49.6963 88.2601 63.5565 88.2601 80.5908C88.2603 97.6249 102.121 111.484 119.155 111.484C136.188 111.484 150.048 97.6249 150.048 80.5908C150.048 63.5566 136.189 49.6964 119.155 49.6963ZM149.742 106.286C149.506 106.566 149.268 106.843 149.026 107.116H151.433L149.742 106.286Z" fill="#F9F7F4" stroke="#F9F7F4" stroke-width="2"/>
<path d="M119.155 55.5587C132.958 55.5589 144.186 66.7875 144.186 80.5909C144.186 94.3941 132.958 105.622 119.155 105.622C105.352 105.622 94.1231 94.3942 94.1228 80.5909C94.1228 66.7873 105.351 55.5587 119.155 55.5587ZM119.155 64.6348C110.358 64.6348 103.199 71.794 103.199 80.5909C103.199 89.3879 110.358 96.546 119.155 96.546C127.952 96.5457 135.11 89.3874 135.11 80.5909C135.11 71.7942 127.952 64.6351 119.155 64.6348Z" fill="#F9F7F4" stroke="#F9F7F4" stroke-width="2"/>
<path d="M119.155 64.7486C121.661 64.7486 123.693 66.7802 123.693 69.2867C123.693 71.7932 121.661 73.8248 119.155 73.8248C115.425 73.8248 112.389 76.8605 112.389 80.5904C112.389 83.0969 110.357 85.1285 107.851 85.1285C105.344 85.1285 103.313 83.0969 103.313 80.5904C103.313 71.8546 110.419 64.7486 119.155 64.7486Z" fill="#F9F7F4" stroke="#F9F7F4" stroke-width="2"/>
</g>
<defs>
<clipPath id="clip0_1_95">
<rect width="161" height="161" fill="white" transform="translate(44 39)"/>
</clipPath>
</defs>
</svg>
