<?xml version="1.0" encoding="UTF-8" standalone="no"?>
<!-- Created with Inkscape (http://www.inkscape.org/) -->

<svg
   width="61.849621mm"
   height="137.18144mm"
   viewBox="0 0 61.849621 137.18144"
   version="1.1"
   id="svg5"
   xml:space="preserve"
   inkscape:version="1.2.2 (b0a8486541, 2022-12-01)"
   sodipodi:docname="marker_coral_crop.svg"
   xmlns:inkscape="http://www.inkscape.org/namespaces/inkscape"
   xmlns:sodipodi="http://sodipodi.sourceforge.net/DTD/sodipodi-0.dtd"
   xmlns="http://www.w3.org/2000/svg"
   xmlns:svg="http://www.w3.org/2000/svg"><sodipodi:namedview
     id="namedview7"
     pagecolor="#ffffff"
     bordercolor="#000000"
     borderopacity="0.25"
     inkscape:showpageshadow="2"
     inkscape:pageopacity="0.0"
     inkscape:pagecheckerboard="0"
     inkscape:deskcolor="#d1d1d1"
     inkscape:document-units="mm"
     showgrid="false"
     inkscape:zoom="0.77326038"
     inkscape:cx="338.82507"
     inkscape:cy="464.91455"
     inkscape:window-width="1920"
     inkscape:window-height="1043"
     inkscape:window-x="0"
     inkscape:window-y="0"
     inkscape:window-maximized="1"
     inkscape:current-layer="layer1-3" /><defs
     id="defs2" /><g
     inkscape:label="Calque 1"
     inkscape:groupmode="layer"
     id="layer1"
     transform="translate(-0.41029,-0.039709)"><g
       inkscape:label="Calque 1"
       id="layer1-3"
       transform="translate(56.799539,14.370969)"><path
         d="m -56.36279,35.569157 c 0,-27.5695834 13.837774,-49.900417 30.906399,-49.900417 17.0686301,0 30.9167611,22.4817736 30.9167611,50.237706 0,31.778135 -19.3551781,69.869304 -27.4386261,84.386564 -1.90009,3.40956 -5.072278,3.40956 -6.972374,0 -8.083442,-14.51726 -27.438619,-52.608429 -27.438619,-84.386564 z m 31.123296,28.126259 c 14.428959,0 26.16017413,-12.638683 26.16017413,-28.183811 0,-15.545133 -11.73121513,-28.1838124 -26.16017413,-28.1838124 -14.428967,0 -26.160166,12.6386794 -26.160166,28.1838124 0,15.545128 11.731199,28.183811 26.160166,28.183811 z"
         id="path9"
         style="fill:#1a1a1a;stroke-width:0.264583"
         sodipodi:nodetypes="cssccccsssss" /><g
         style="fill:#ff5555"
         id="g1913"
         transform="matrix(0.08638061,0,0,0.08437194,-47.022243,13.662328)"><g
           id="g1885"
           style="fill:#ff5555">
	<g
   id="g1883"
   style="fill:#ff5555">
		<path
   d="m 505.343,205.068 c -6.48,-9.244 -16.658,-14.905 -27.927,-15.53 -17.112,-0.95 -32.756,10.291 -37.234,26.726 -2.156,7.916 -5.873,16.147 -11.508,25.402 -8.708,-8.347 -13.168,-18.632 -13.978,-32.127 -0.589,-9.828 -4.97,-18.839 -12.336,-25.372 -7.369,-6.536 -16.854,-9.811 -26.664,-9.214 -9.828,0.589 -18.838,4.971 -25.371,12.337 -6.532,7.367 -9.805,16.836 -9.215,26.663 1.872,31.183 13.845,58.328 34.812,79.234 -6.962,4.027 -14.409,7.672 -22.289,10.911 -3.537,-13.084 -7.761,-25.646 -11.876,-37.889 -9.179,-27.309 -17.85,-53.104 -18.722,-81.199 -0.296,-9.525 -0.102,-20.872 0.575,-33.819 31.002,-3.372 70.26,-13.294 97.335,-40.199 6.983,-6.941 10.847,-16.184 10.878,-26.029 C 431.854,75.118 428.048,65.85 421.109,58.868 414.17,51.883 404.926,48.02 395.08,47.99 c -0.039,0 -0.078,0 -0.116,0 -9.802,0 -19.025,3.802 -25.979,10.714 -7.513,7.464 -20.827,13.278 -38.178,16.789 2.413,-18.946 4.484,-32.195 4.589,-32.861 3.181,-20.071 -10.559,-38.991 -30.63,-42.174 -20.08,-3.184 -38.994,10.557 -42.178,30.629 -0.618,3.893 -15.102,96.031 -13.234,156.21 1.212,38.978 12.538,72.675 22.534,102.414 12.58,37.422 22.299,66.34 12.86,98.741 -11.689,-27.019 -26.167,-52.683 -43.198,-76.549 -9.508,-13.323 -19.485,-26.716 -30.079,-40.937 -21.432,-28.766 -43.527,-58.423 -61.085,-87.007 24.937,-17.313 52.682,-51.191 60.445,-117.201 2.373,-20.185 -12.118,-38.538 -32.303,-40.911 -20.196,-2.374 -38.537,12.121 -40.91,32.301 -3.236,27.526 -10.982,44.298 -18.486,54.41 -0.456,-2.817 -0.744,-5.516 -0.862,-8.085 -0.456,-9.852 -4.719,-18.932 -12.005,-25.566 -7.275,-6.623 -16.681,-10.006 -26.518,-9.552 -20.301,0.938 -36.054,18.218 -35.118,38.52 2.511,54.339 37.865,111.001 76.831,165.169 -20.732,-1.031 -45.389,-5.315 -58.297,-18.669 -6.862,-7.1 -16.078,-11.091 -25.953,-11.238 -9.836,-0.162 -19.207,3.568 -26.279,10.462 -6.935,6.761 -10.806,15.913 -10.898,25.771 -0.093,10.075 3.908,19.956 10.98,27.111 25.568,25.866 64.348,39.492 115.265,40.5 18.794,0.369 35.718,-1.092 47.797,-2.613 2.701,3.706 5.167,7.124 7.47,10.35 45.08,63.175 55.3,125.243 55.385,125.775 2.055,13.996 12.122,25.724 25.648,29.878 3.512,1.077 7.15,1.624 10.815,1.624 10.309,0 20.216,-4.36 27.182,-11.958 9.443,-10.306 17.883,-20.747 25.157,-31.117 7.798,1.733 17.781,3.424 28.685,3.984 2.594,0.133 5.187,0.2 7.708,0.2 45.289,0 69.275,-21.236 81.421,-39.051 5.546,-8.135 7.593,-17.942 5.763,-27.616 -1.83,-9.674 -7.317,-18.056 -15.45,-23.601 -8.133,-5.548 -17.941,-7.594 -27.615,-5.765 -9.674,1.83 -18.057,7.317 -23.604,15.452 -3.529,5.177 -12.301,7.493 -24.679,6.717 1.47,-6.433 2.557,-12.934 3.253,-19.457 72.767,-23.63 110.696,-66.692 129.801,-99.133 8.257,-14.022 14.78,-28.882 19.386,-44.166 3.241,-10.752 1.398,-22.204 -5.058,-31.416 z m -14.479,25.533 c -4.137,13.726 -10.002,27.083 -17.434,39.701 -17.827,30.272 -53.939,70.81 -124.73,92.02 -4.088,1.225 -6.981,4.866 -7.252,9.126 -0.712,11.277 -2.769,22.547 -6.112,33.496 -0.853,2.794 -0.467,5.82 1.061,8.31 1.527,2.491 4.049,4.206 6.926,4.713 27.253,4.796 46.673,-0.029 56.164,-13.951 2.477,-3.633 6.222,-6.084 10.542,-6.902 4.319,-0.817 8.698,0.097 12.331,2.574 3.633,2.476 6.084,6.219 6.901,10.54 0.818,4.319 -0.096,8.699 -2.572,12.332 -9.377,13.752 -28.191,30.144 -64.569,30.144 -2.174,0 -4.416,-0.058 -6.662,-0.173 -12.811,-0.658 -24.243,-3.109 -31.577,-5.05 -4.237,-1.12 -8.709,0.587 -11.12,4.242 -7.538,11.422 -16.7,23.04 -27.231,34.534 -3.108,3.394 -7.533,5.341 -12.138,5.341 -1.634,0 -3.259,-0.245 -4.827,-0.726 -6.04,-1.854 -10.536,-7.091 -11.463,-13.401 -0.101,-0.662 -10.674,-66.943 -58.954,-134.601 -3.332,-4.67 -6.997,-9.727 -11.202,-15.457 -1.939,-2.641 -5.005,-4.165 -8.222,-4.165 -0.488,0 -0.978,0.035 -1.472,0.104 -11.331,1.646 -29.767,3.64 -50.576,3.232 -45.421,-0.899 -79.456,-12.487 -101.159,-34.445 -3.279,-3.317 -5.133,-7.902 -5.089,-12.582 0.041,-4.383 1.724,-8.414 4.739,-11.354 3.159,-3.079 7.352,-4.75 11.736,-4.673 4.409,0.065 8.526,1.847 11.59,5.018 21.793,22.544 62.839,26.046 93.437,25.009 3.781,-0.127 7.181,-2.339 8.831,-5.742 1.652,-3.405 1.283,-7.442 -0.957,-10.491 C 110.087,223.275 67.504,161.076 65.002,106.93 64.584,97.863 71.62,90.146 80.697,89.726 c 4.377,-0.203 8.588,1.303 11.831,4.257 3.255,2.964 5.158,7.021 5.362,11.425 0.419,9.094 2.438,19.195 5.997,30.024 1.006,3.058 3.395,5.462 6.448,6.485 3.054,1.024 6.407,0.546 9.054,-1.289 14.436,-10.014 32.832,-32.039 38.484,-80.103 1.06,-9.013 9.254,-15.483 18.271,-14.426 9.013,1.06 15.484,9.256 14.425,18.27 -7.7,65.478 -36.385,94.545 -59.091,107.399 -2.377,1.346 -4.115,3.589 -4.824,6.226 -0.711,2.638 -0.334,5.448 1.047,7.805 18.824,32.134 43.523,65.286 67.44,97.387 10.498,14.093 20.416,27.405 29.802,40.558 20.821,29.178 37.628,61.185 49.955,95.133 1.371,3.775 4.828,6.394 8.833,6.691 3.983,0.299 7.811,-1.783 9.723,-5.315 27.043,-49.946 13.475,-90.31 -2.238,-137.057 -9.544,-28.392 -20.361,-60.571 -21.479,-96.539 -1.81,-58.275 12.386,-148.566 12.992,-152.38 1.422,-8.964 9.866,-15.102 18.835,-13.679 8.963,1.422 15.099,9.871 13.674,18.859 -0.132,0.838 -3.256,20.833 -6.341,47.064 -0.365,3.112 0.718,6.218 2.941,8.427 2.222,2.209 5.335,3.274 8.445,2.886 19.94,-2.475 47.069,-8.764 63.073,-24.668 3.107,-3.086 7.224,-4.784 11.603,-4.784 0.017,0 0.035,0 0.052,0 4.396,0.014 8.523,1.739 11.623,4.859 3.1,3.118 4.799,7.257 4.784,11.653 -0.014,4.397 -1.739,8.525 -4.858,11.624 -26.662,26.496 -69.95,33.39 -93.383,35.142 -5.069,0.378 -9.085,4.434 -9.416,9.508 -1.125,17.255 -1.502,32.217 -1.122,44.47 0.967,31.106 10.103,58.286 19.779,87.075 5.129,15.256 10.432,31.031 14.167,47.268 0.65,2.827 2.472,5.242 5.012,6.644 2.54,1.402 5.556,1.654 8.293,0.699 18.09,-6.323 34.477,-14.525 48.705,-24.374 2.656,-1.838 4.283,-4.823 4.389,-8.05 0.107,-3.227 -1.321,-6.313 -3.849,-8.322 l -0.259,-0.205 c -0.219,-0.175 -0.441,-0.351 -0.661,-0.529 -22.257,-18.094 -34.964,-43.377 -36.748,-73.115 -0.264,-4.389 1.197,-8.617 4.114,-11.907 2.917,-3.289 6.941,-5.247 11.333,-5.51 4.367,-0.267 8.613,1.196 11.903,4.113 3.289,2.918 5.245,6.942 5.509,11.332 1.192,19.856 8.975,36.096 23.132,48.269 2.52,2.167 5.267,4.213 8.165,6.082 4.629,2.985 10.793,1.754 13.922,-2.78 10.396,-15.068 16.849,-28.002 20.311,-40.705 1.964,-7.211 8.857,-12.141 16.423,-11.72 4.983,0.276 9.486,2.78 12.353,6.87 2.844,4.06 3.657,9.099 2.232,13.828 z"
   id="path1881"
   style="fill:#ff5555" />
	</g>
</g><g
           id="g1891"
           style="fill:#ff5555">
	<g
   id="g1889"
   style="fill:#ff5555">
		<path
   d="M 183.738,281.746 159.21,245.464 c -3.155,-4.667 -9.495,-5.89 -14.162,-2.737 -4.667,3.155 -5.893,9.495 -2.737,14.162 l 24.528,36.282 c 1.972,2.915 5.185,4.488 8.458,4.488 1.966,0 3.952,-0.568 5.703,-1.75 4.668,-3.156 5.894,-9.497 2.738,-14.163 z"
   id="path1887"
   style="fill:#ff5555" />
	</g>
</g><g
           id="g1897"
           style="fill:#ff5555">
	<g
   id="g1895"
   style="fill:#ff5555">
		<path
   d="m 139.761,216.695 -7.208,-10.662 c -3.155,-4.667 -9.495,-5.89 -14.162,-2.737 -4.667,3.155 -5.893,9.495 -2.737,14.162 l 7.208,10.662 c 1.971,2.915 5.185,4.488 8.458,4.488 1.966,0 3.952,-0.567 5.703,-1.75 4.668,-3.156 5.894,-9.497 2.738,-14.163 z"
   id="path1893"
   style="fill:#ff5555" />
	</g>
</g></g><path
         style="fill:#d40000;stroke-width:0.202503"
         d="m -24.323425,54.602585 c -0.169598,-0.192632 -0.470217,-1.025691 -0.668046,-1.851249 -0.427785,-1.785164 -1.838883,-4.625143 -2.836581,-6.554837 -0.837458,-1.619774 -2.769823,-4.673747 -3.173075,-4.927844 -0.15171,-0.0956 -1.773857,0.0022 -3.802362,0.0019 -2.961244,-3.09e-4 -4.6793,-0.220473 -5.830895,-0.522222 -2.687766,-0.704279 -4.752826,-2.381869 -4.752826,-3.379448 0,-0.482774 0.497282,-1.564856 0.93488,-1.564856 0.153811,0 1.17491,-0.106582 1.783114,0.336641 1.46377,1.066724 3.398747,1.940169 6.068923,2.082264 2.375313,0.126405 2.284732,0.252748 2.609558,-0.800561 l -0.942799,-1.35511 0.648961,-0.288274 0.842439,1.39772 c 0.627042,1.040344 1.291156,1.690936 1.827864,1.410379 0.83133,-0.434569 0.630189,-0.897098 -0.513284,-2.518128 -1.441066,-2.042915 -1.28325,-1.984737 -1.795844,-1.984737 -0.907846,0 -1.089239,0.808612 -0.47383,1.666801 0.180537,0.251758 -0.304354,0.309118 -0.359531,0.36301 -0.123329,0.120466 -2.298403,-2.879218 -3.641472,-5.052943 -1.855236,-3.002658 -3.075537,-6.397868 -3.075537,-8.349341 0,-1.354056 1.763297,-2.191063 2.577093,-1.26417 0.207775,0.236647 0.395867,1.064924 0.495,1.682372 0.441765,2.7516 1.06296,3.168439 2.615734,1.52305 1.089147,-1.154107 1.603014,-2.471146 2.097108,-4.679586 0.213337,-0.953544 0.438555,-1.967362 0.575254,-2.128241 0.416452,-0.490129 1.969926,-0.456483 2.355001,0.117547 0.29006,0.432395 0.266186,2.015392 0.05648,3.191607 -0.638788,3.582891 -2.100214,5.213168 -4.4522,6.793747 -0.64898,0.436126 -0.85348,0.540478 -0.85348,0.914161 0,0.628219 2.133778,3.64405 6.212943,9.065752 3.545632,4.712578 4.576514,6.393577 5.789926,9.186765 0.986237,2.270246 1.220026,2.734778 1.971729,2.2537 0.584282,-0.373935 1.24357,-2.043599 1.552824,-3.872665 0.321533,-1.901669 -0.142873,-3.733868 -1.605341,-8.295721 -1.708897,-5.330508 -1.752928,-5.558585 -1.732119,-9.359814 0.02567,-4.691196 0.788747,-11.483117 1.410158,-12.153801 0.429668,-0.463737 1.936868,-0.369552 2.369726,0.09763 0.405769,0.437945 0.306082,1.073128 -0.01581,3.613101 -0.311615,2.458823 -0.323146,2.514009 1.334618,2.364297 1.546731,-0.139686 3.312841,-1.072142 4.506565,-1.928041 1.163042,-0.833896 1.735957,-0.612154 2.346813,0.02296 0.647373,0.673072 1.079315,1.060696 0.161052,1.870999 -1.456464,1.28523 -2.335066,2.314499 -5.290882,2.760934 -0.788864,0.119145 -3.31105,0.314239 -3.479394,0.476966 -0.464238,0.448741 -0.525918,4.392603 -0.112245,6.538263 0.279965,1.452157 2.189556,7.737623 2.746675,9.08115 0.135204,0.32605 0.328599,0.635739 0.772636,0.635739 0.717316,0 2.400298,-0.782219 3.785635,-1.650517 1.309826,-0.820967 1.18643,-1.077488 -0.173284,-2.481755 -1.855924,-1.916731 -3.074723,-5.706417 -2.194972,-6.65592 0.226099,-0.244027 1.04838,-0.336367 1.466892,-0.336367 0.832428,0 1.333057,0.783498 1.508536,2.138796 0.205661,1.588351 0.955932,2.877157 2.312949,3.571153 1.0185556,0.520903 1.3589815,-0.0686 3.3724999,-4.2153 0.4817333,-0.992093 2.5092261,0.0204 2.501358,1.122109 -0.00456,0.639255 -1.2795236,3.437595 -2.2179204,4.71904 -1.0462407,1.428718 -2.9093962,3.252599 -4.3491215,4.213354 -1.032933,0.689295 -3.82236,2.043952 -5.423927,2.603629 -0.869158,0.303734 -0.83362,0.331405 -0.940837,0.993508 -0.06558,0.405023 -0.209027,1.176316 -0.337348,1.867111 -0.30349,1.633773 -0.271835,1.719415 1.570294,1.833985 1.600269,0.09953 2.554495,-0.354386 3.539233,-1.223353 0.409256,-0.36114 0.989317,-0.654914 1.156979,-0.687329 0.560107,-0.10829 1.363595,0.557337 1.5581005,1.057036 0.3669494,0.942705 -0.8394985,2.508503 -2.7111085,3.334166 -1.026342,0.452773 -3.419107,0.756854 -5.451671,0.266954 l -1.605233,-0.3869 -1.104821,1.374172 c -0.607654,0.755793 -1.311838,1.576807 -1.564852,1.824473 -0.552685,0.541003 -1.521003,0.590622 -1.952893,0.100066 z M -35.124113,32.959368 c 0.362104,-0.353683 0.360371,-0.803978 -0.186091,-1.521955 -0.673925,-0.885443 -1.600562,-1.057748 -1.633971,-0.06085 -0.03938,1.175196 1.129315,2.257494 1.820062,1.582809 z"
         id="path401"
         sodipodi:nodetypes="sssscssssssccsssssssssssssssssssssssssssssssssssssssssssssssssssssscssssssss" /><path
         style="fill:#d40000;stroke-width:0.0178989"
         d="m -23.970917,55.048822 c -0.265106,-0.04097 -0.319626,-0.268025 -0.503565,-0.392638 -0.400463,-0.271304 -0.348295,-0.745125 -0.612203,-1.772466 -0.332298,-1.293569 -0.652313,-2.686624 -1.245937,-4.11839 -0.776594,-1.873073 -1.454945,-3.140905 -2.714169,-5.072758 -0.09648,-0.148009 -0.175413,-0.273429 -0.175413,-0.27871 0,-0.0053 0.686213,-0.0076 1.524917,-0.005 l 1.524915,0.0046 0.207158,0.336103 c 0.638238,1.035503 1.167461,2.059719 1.796091,3.476006 0.522236,1.176576 0.759296,1.629678 1.050883,2.008608 0.148324,0.192753 0.27634,0.308386 0.415902,0.375681 0.08603,0.04148 0.121827,0.04803 0.262605,0.04803 0.154502,0 0.171328,-0.0039 0.322861,-0.07502 0.250619,-0.117608 0.450445,-0.324214 0.663135,-0.685633 0.523824,-0.890127 0.997717,-2.445259 1.172446,-3.847489 0.02455,-0.196999 0.03207,-0.393963 0.03246,-0.849099 2.77e-4,-0.325932 -0.0056,-0.638373 -0.01325,-0.694317 l -0.01375,-0.101715 2.639798,0.0015 2.639796,0.0015 -0.117718,0.05369 c -0.239911,0.109425 -0.898793,0.371072 -1.352469,0.537079 -0.560205,0.204984 -0.741002,0.288859 -0.869929,0.40358 -0.191025,0.169979 -0.224674,0.267589 -0.357455,1.036908 -0.05458,0.316201 -0.155988,0.889345 -0.225366,1.273652 -0.183325,1.015514 -0.211229,1.298201 -0.157287,1.593545 0.07681,0.420538 0.359673,0.622112 1.024658,0.730182 0.383101,0.06226 0.79518,0.08909 1.376416,0.08962 0.455191,3.1e-4 0.614408,-0.0058 0.787815,-0.03092 0.477633,-0.06909 0.877369,-0.182108 1.229313,-0.347558 0.367545,-0.172785 0.62811,-0.348988 1.088862,-0.736328 0.403745,-0.339415 0.688261,-0.539506 0.910725,-0.64049 0.09186,-0.0417 0.124826,-0.04687 0.293642,-0.04611 0.290006,0.0013 0.553985,0.08742 0.805611,0.262804 0.335549,0.233875 0.495736,0.544273 0.47517,0.92074 -0.03995,0.731236 -0.790936,1.619894 -1.944082,2.300453 -0.322933,0.190589 -0.813466,0.42233 -1.058764,0.500188 -1.081944,0.343418 -3.270614,0.583844 -5.062223,0.361858 -0.159377,-0.01975 0.21281,0.379147 -0.902936,-0.138661 -0.317131,-0.147176 -0.302643,0.271721 -0.596101,-0.0073 -0.01213,-0.01146 -0.16545,0.221962 -0.52493,0.669551 -1.295263,1.612747 -1.254122,2.074438 -2.554651,2.773513 -0.321609,0.172879 -0.609566,0.242408 -0.93764,0.191709 z"
         id="path541"
         sodipodi:nodetypes="csssssccsssssssssscccsssssssccssscssssssssscc" /></g></g></svg>
